<svg width="133" height="22" viewBox="0 0 133 22" fill="none" xmlns="http://www.w3.org/2000/svg">
<g clip-path="url(#clip0_17978_394453)">
<path d="M6.67187 7.28647V17.1822H3.59902V7.28647H0V4.71587H10.2675V7.28647H6.67187Z" fill="#1E0DFF"/>
<path d="M11.6776 17.1822V4.71587H20.2376V7.25131H14.6394V9.61099H19.9258V12.0278H14.6394V14.616H20.5551V17.1866L11.6776 17.1822Z" fill="#1E0DFF"/>
<path d="M34.1327 17.1822L34.2045 8.36085H34.1506L30.8411 17.1822H28.6837L25.465 8.36085H25.4111L25.4829 17.1822H22.5873V4.71587H26.9627L29.8617 12.71H29.9335L32.7057 4.71587H37.1539V17.1822H34.1327Z" fill="#1E0DFF"/>
<path d="M49.4178 8.55439C49.4178 9.28236 49.2802 9.89571 49.0049 10.3945C48.7411 10.8814 48.3579 11.2966 47.8898 11.6029C47.3955 11.9192 46.8472 12.1459 46.2709 12.2719C45.6456 12.4141 45.0056 12.4849 44.3637 12.4828H42.8368V17.1846H39.7617V4.71606H44.4377C45.0937 4.7117 45.7481 4.77951 46.3887 4.9182C46.9533 5.0365 47.4902 5.25747 47.9717 5.56964C48.4228 5.86872 48.7894 6.27456 49.0375 6.74948C49.291 7.23723 49.4178 7.83887 49.4178 8.55439ZM46.3427 8.57196C46.3535 8.31963 46.2913 8.06943 46.1632 7.85022C46.0444 7.66373 45.8766 7.51195 45.6774 7.4108C45.461 7.30147 45.2267 7.23008 44.9852 7.19988C44.7201 7.16423 44.4528 7.14661 44.1853 7.14715H42.839V10.0869H44.1337C44.4109 10.0879 44.6876 10.0644 44.9605 10.0166C45.2099 9.97518 45.4502 9.89193 45.6707 9.77048C45.8738 9.65905 46.0442 9.49826 46.1654 9.3036C46.293 9.08059 46.3551 8.82738 46.3449 8.57196H46.3427Z" fill="#1E0DFF"/>
<path d="M69.9711 17.1822L68.9827 14.7346H64.0554L63.1197 17.1822H59.7754L65.1167 4.71587H68.1009L73.3884 17.1822H69.9711ZM66.555 8.04666L64.9361 12.331H68.1368L66.555 8.04666Z" fill="#1E0DFF"/>
<path d="M78.8186 7.28647V17.1822H75.7435V7.28647H72.1456V4.71587H82.4142V7.28647H78.8186Z" fill="#1E0DFF"/>
<path d="M83.8148 17.1822V4.71587H92.3749V7.25131H86.7822V9.61099H92.0686V12.0278H86.7822V14.616H92.698V17.1866L83.8148 17.1822Z" fill="#1E0DFF"/>
<path d="M96.7303 16.3373C96.7303 16.5827 96.6339 16.8188 96.4611 16.9965C96.3699 17.0882 96.2609 17.1611 96.1404 17.2109C96.02 17.2607 95.8906 17.2864 95.7599 17.2864C95.6291 17.2864 95.4997 17.2607 95.3793 17.2109C95.2589 17.1611 95.1499 17.0882 95.0587 16.9965C94.8859 16.8188 94.7894 16.5827 94.7894 16.3373C94.7894 16.0919 94.8859 15.8559 95.0587 15.6782C95.1497 15.5862 95.2587 15.513 95.3791 15.463C95.4996 15.4131 95.6291 15.3873 95.7599 15.3873C95.8907 15.3873 96.0202 15.4131 96.1406 15.463C96.2611 15.513 96.3701 15.5862 96.4611 15.6782C96.6341 15.8558 96.7305 16.0919 96.7303 16.3373Z" fill="#1E0DFF"/>
<path d="M108.814 15.3333H108.85V4.71587H110.144V17.1822H108.525L101.121 6.45816H101.085V17.1822H99.7903V4.71587H101.409L108.814 15.3333Z" fill="#1E0DFF"/>
<path d="M114.821 16.0551H121.637V17.1822H113.527V4.71587H121.422V5.84188H114.821V10.1262H120.992V11.2522H114.821V16.0551Z" fill="#1E0DFF"/>
<path d="M128.251 17.1822H126.957V5.84188H122.694V4.71587H132.512V5.84188H128.249L128.251 17.1822Z" fill="#1E0DFF"/>
<path d="M54.3629 14.5578V4.71484H51.2698V17.1823H57.8598L58.9839 14.5578H54.3629Z" fill="#1E0DFF"/>
</g>
<defs>
<clipPath id="clip0_17978_394453">
<rect width="132.512" height="22" fill="white"/>
</clipPath>
</defs>
</svg>
